<svg viewBox="0 0 500 500" version="1.1" xmlns="http://www.w3.org/2000/svg">
  <title>SVG icon for {{ meta.title }}</title>  
    <g>
        <g transform="matrix(532.778,0,0,532.778,299.428,387.877)">
            <path d="M0.011,-0.728L0.011,-0.568L0.033,-0.568C0.054,-0.568 0.069,-0.564 0.079,-0.555C0.09,-0.546 0.097,-0.533 0.101,-0.515C0.103,-0.505 0.105,-0.479 0.105,-0.435C0.105,-0.391 0.11,-0.357 0.119,-0.332C0.125,-0.312 0.134,-0.297 0.146,-0.285C0.156,-0.276 0.171,-0.267 0.191,-0.258C0.17,-0.248 0.153,-0.238 0.143,-0.227C0.132,-0.216 0.123,-0.199 0.116,-0.177C0.108,-0.155 0.104,-0.119 0.104,-0.07C0.104,-0.026 0.102,0.002 0.098,0.016C0.093,0.029 0.086,0.038 0.075,0.044C0.064,0.049 0.043,0.052 0.011,0.052L0.011,0.21L0.073,0.21C0.136,0.21 0.181,0.204 0.208,0.19C0.235,0.176 0.254,0.156 0.265,0.129C0.277,0.103 0.282,0.063 0.282,0.01C0.282,-0.002 0.282,-0.014 0.281,-0.025C0.281,-0.033 0.281,-0.04 0.281,-0.047C0.281,-0.085 0.284,-0.112 0.291,-0.128C0.298,-0.144 0.308,-0.155 0.321,-0.163C0.333,-0.17 0.352,-0.174 0.376,-0.174L0.376,-0.342C0.351,-0.342 0.333,-0.346 0.32,-0.354C0.308,-0.361 0.298,-0.373 0.292,-0.389C0.285,-0.406 0.282,-0.433 0.282,-0.471L0.282,-0.488C0.282,-0.495 0.282,-0.503 0.282,-0.51C0.282,-0.568 0.277,-0.61 0.268,-0.635C0.258,-0.661 0.245,-0.681 0.228,-0.694C0.215,-0.705 0.198,-0.713 0.176,-0.718C0.147,-0.725 0.114,-0.728 0.077,-0.728L0.011,-0.728Z" style="fill-rule:nonzero;"/>
        </g>
        <g transform="matrix(532.778,0,0,532.778,-6.76379,387.877)">
            <path d="M0.378,-0.728L0.378,-0.568L0.356,-0.568C0.335,-0.568 0.32,-0.564 0.31,-0.555C0.3,-0.546 0.292,-0.533 0.288,-0.515C0.286,-0.505 0.285,-0.479 0.284,-0.435C0.284,-0.391 0.279,-0.357 0.271,-0.332C0.264,-0.312 0.255,-0.297 0.243,-0.285C0.234,-0.276 0.219,-0.267 0.198,-0.258C0.22,-0.248 0.236,-0.238 0.246,-0.227C0.257,-0.216 0.266,-0.199 0.273,-0.177C0.281,-0.155 0.285,-0.119 0.285,-0.07C0.285,-0.026 0.287,0.002 0.292,0.016C0.296,0.029 0.304,0.038 0.314,0.044C0.325,0.049 0.346,0.052 0.378,0.052L0.378,0.21L0.316,0.21C0.253,0.21 0.208,0.204 0.181,0.19C0.154,0.176 0.135,0.156 0.124,0.129C0.113,0.103 0.107,0.063 0.107,0.01C0.107,-0.002 0.107,-0.014 0.108,-0.025C0.108,-0.033 0.108,-0.04 0.108,-0.047C0.108,-0.085 0.105,-0.112 0.098,-0.128C0.091,-0.144 0.081,-0.155 0.069,-0.163C0.056,-0.17 0.037,-0.174 0.013,-0.174L0.013,-0.342C0.038,-0.342 0.057,-0.346 0.069,-0.354C0.082,-0.361 0.091,-0.373 0.098,-0.389C0.104,-0.406 0.107,-0.433 0.107,-0.471L0.107,-0.488C0.107,-0.495 0.107,-0.503 0.107,-0.51C0.107,-0.568 0.112,-0.61 0.121,-0.635C0.131,-0.661 0.144,-0.681 0.161,-0.694C0.174,-0.705 0.191,-0.713 0.213,-0.718C0.242,-0.725 0.275,-0.728 0.312,-0.728L0.378,-0.728Z" style="fill-rule:nonzero;"/>
        </g>
        <g transform="matrix(292.041,0,0,300,134.495,357.3)">
            <path d="M0.55,-0.292L0.744,-0.234C0.731,-0.18 0.71,-0.134 0.682,-0.098C0.654,-0.061 0.619,-0.034 0.578,-0.015C0.536,0.003 0.484,0.013 0.419,0.013C0.342,0.013 0.278,0.001 0.229,-0.021C0.179,-0.044 0.137,-0.084 0.101,-0.141C0.065,-0.198 0.047,-0.271 0.047,-0.359C0.047,-0.478 0.079,-0.569 0.142,-0.633C0.205,-0.696 0.294,-0.728 0.409,-0.728C0.499,-0.728 0.57,-0.71 0.622,-0.673C0.673,-0.637 0.712,-0.581 0.737,-0.505L0.542,-0.462C0.535,-0.484 0.528,-0.5 0.52,-0.51C0.508,-0.527 0.493,-0.54 0.475,-0.549C0.457,-0.558 0.437,-0.563 0.415,-0.563C0.364,-0.563 0.326,-0.542 0.299,-0.502C0.279,-0.472 0.269,-0.425 0.269,-0.361C0.269,-0.281 0.281,-0.227 0.305,-0.198C0.329,-0.168 0.363,-0.153 0.407,-0.153C0.449,-0.153 0.481,-0.165 0.503,-0.189C0.524,-0.213 0.54,-0.247 0.55,-0.292Z" style="fill-rule:nonzero;"/>
        </g>
    </g>
</svg>
